<svg id="visual" viewBox="0 0 960 540" width="960" height="540" xmlns="http://www.w3.org/2000/svg" xmlns:xlink="http://www.w3.org/1999/xlink" version="1.1"><path d="M0 23L960 33L960 0L0 0Z" fill="#dddad1"></path><path d="M0 50L960 50L960 31L0 21Z" fill="#d7d4cc"></path><path d="M0 71L960 82L960 48L0 48Z" fill="#d1cfc7"></path><path d="M0 147L960 152L960 80L0 69Z" fill="#ccc9c3"></path><path d="M0 195L960 212L960 150L0 145Z" fill="#c6c3be"></path><path d="M0 309L960 352L960 210L0 193Z" fill="#c0beb9"></path><path d="M0 341L960 374L960 350L0 307Z" fill="#bab8b5"></path><path d="M0 379L960 390L960 372L0 339Z" fill="#b4b3b0"></path><path d="M0 395L960 401L960 388L0 377Z" fill="#aeadab"></path><path d="M0 487L960 455L960 399L0 393Z" fill="#a9a8a6"></path><path d="M0 519L960 487L960 453L0 485Z" fill="#a3a2a2"></path><path d="M0 541L960 541L960 485L0 517Z" fill="#9d9d9d"></path></svg>